<?xml version="1.0" encoding="UTF-8" standalone="no"?>
<svg width="67px" height="57px" viewBox="0 0 67 57" version="1.1" xmlns="http://www.w3.org/2000/svg" xmlns:xlink="http://www.w3.org/1999/xlink" xmlns:sketch="http://www.bohemiancoding.com/sketch/ns">
    <!-- Generator: Sketch 3.2.2 (9983) - http://www.bohemiancoding.com/sketch -->
    <title>Shape</title>
    <desc>Created with Sketch.</desc>
    <defs></defs>
    <g id="Page-1" stroke="none" stroke-width="1" fill="none" fill-rule="evenodd" sketch:type="MSPage">
        <g id="Healthcare" sketch:type="MSArtboardGroup" transform="translate(-687.000000, -389.000000)" fill="#FFFFFF">
            <g id="Shape-+-HEALTHCARE" sketch:type="MSLayerGroup" transform="translate(330.000000, 388.000000)">
                <path d="M417.997764,7.11599685 C413.326764,2.59299685 408.281764,0.563996855 403.013764,1.07799685 C397.323764,1.63699685 392.802764,5.12799685 390.070764,7.85999685 C387.338764,5.12799685 382.817764,1.63599685 377.127764,1.07799685 C371.857764,0.563996855 366.814764,2.59199685 362.142764,7.11599685 C356.340764,12.7339969 356.043764,21.4849969 358.325764,27.6669969 C362.471764,38.8719969 374.719764,47.5069969 384.561764,54.4439969 C385.760764,55.2899969 386.922764,56.1089969 388.027764,56.9029969 C388.393764,57.1659969 388.793764,57.3389969 389.205764,57.4429969 C389.247764,57.4539969 389.289764,57.4639969 389.332764,57.4729969 C389.576764,57.5259969 389.821764,57.5609969 390.067764,57.5609969 C390.080764,57.5609969 390.091764,57.5569969 390.104764,57.5569969 C390.329764,57.5549969 390.553764,57.5239969 390.775764,57.4789969 C390.839764,57.4649969 390.901764,57.4519969 390.964764,57.4339969 C391.185764,57.3759969 391.403764,57.3019969 391.614764,57.1989969 C391.639764,57.1859969 391.662764,57.1719969 391.687764,57.1579969 C391.833764,57.0829969 391.976764,56.9999969 392.113764,56.9009969 C393.223764,56.1019969 394.391764,55.2779969 395.597764,54.4279969 C405.433764,47.4939969 417.674764,38.8649969 421.811764,27.6649969 C424.098764,21.4919969 423.806764,12.7429969 417.997764,7.11599685 L417.997764,7.11599685 Z M415.246764,25.2379969 C411.862764,34.3989969 400.607764,42.3319969 391.564764,48.7069969 C391.056764,49.0639969 390.560764,49.4149969 390.067764,49.7639969 C389.582764,49.4199969 389.093764,49.0759969 388.593764,48.7229969 C379.543764,42.3439969 368.280764,34.4039969 364.890764,25.2409969 C363.395764,21.1919969 363.472764,15.5719969 367.011764,12.1449969 C370.172764,9.08299685 373.247764,7.74499685 376.413764,8.04199685 C382.486764,8.61799685 387.110764,15.0729969 387.197764,15.1969969 C387.244764,15.2649969 387.303764,15.3179969 387.355764,15.3809969 C387.434764,15.4789969 387.511764,15.5779969 387.602764,15.6689969 C387.695764,15.7619969 387.796764,15.8399969 387.897764,15.9209969 C387.959764,15.9699969 388.010764,16.0279969 388.076764,16.0739969 C388.095764,16.0869969 388.116764,16.0939969 388.135764,16.1069969 C388.247764,16.1819969 388.366764,16.2399969 388.486764,16.3009969 C388.575764,16.3459969 388.662764,16.3979969 388.754764,16.4359969 C388.859764,16.4779969 388.968764,16.5049969 389.076764,16.5379969 C389.187764,16.5709969 389.296764,16.6099969 389.408764,16.6309969 C389.511764,16.6509969 389.616764,16.6539969 389.720764,16.6649969 C389.838764,16.6769969 389.955764,16.6949969 390.073764,16.6949969 C390.185764,16.6949969 390.296764,16.6769969 390.407764,16.6669969 C390.518764,16.6569969 390.629764,16.6519969 390.738764,16.6299969 C390.845764,16.6089969 390.951764,16.5709969 391.057764,16.5399969 C391.169764,16.5069969 391.282764,16.4789969 391.390764,16.4349969 C391.480764,16.3979969 391.564764,16.3479969 391.652764,16.3029969 C391.773764,16.2409969 391.893764,16.1819969 392.007764,16.1059969 C392.025764,16.0939969 392.045764,16.0869969 392.063764,16.0749969 C392.129764,16.0289969 392.182764,15.9699969 392.245764,15.9199969 C392.346764,15.8389969 392.447764,15.7609969 392.541764,15.6679969 C392.633764,15.5759969 392.711764,15.4749969 392.791764,15.3749969 C392.842764,15.3119969 392.900764,15.2589969 392.947764,15.1919969 C392.992764,15.1269969 397.642764,8.64199685 403.697764,8.04699685 C406.869764,7.73599685 409.958764,9.07499685 413.128764,12.1459969 C416.670764,15.5759969 416.744764,21.1929969 415.246764,25.2379969 L415.246764,25.2379969 Z" id="Shape" sketch:type="MSShapeGroup"></path>
            </g>
        </g>
    </g>
</svg>