<?xml version="1.0" encoding="UTF-8" standalone="no"?>
<svg width="46px" height="36px" viewBox="0 0 46 36" version="1.1" xmlns="http://www.w3.org/2000/svg" xmlns:xlink="http://www.w3.org/1999/xlink" xmlns:sketch="http://www.bohemiancoding.com/sketch/ns">
    <!-- Generator: Sketch 3.2.2 (9983) - http://www.bohemiancoding.com/sketch -->
    <title>Group</title>
    <desc>Created with Sketch.</desc>
    <defs></defs>
    <g id="Page-1" stroke="none" stroke-width="1" fill="none" fill-rule="evenodd" sketch:type="MSPage">
        <g id="Wat-heb-ik-geleerd?" sketch:type="MSArtboardGroup" transform="translate(-152.000000, -577.000000)" fill="#FFFFFF">
            <g id="Group" sketch:type="MSLayerGroup" transform="translate(152.000000, 577.000000)">
                <path d="M44.4755814,0.23641791 L1.52548837,0.23641791 C0.584093023,0.23641791 0.0181860465,0.804895522 0.0181860465,1.75056716 L0.0181860465,29.3781493 C0.0181860465,30.3243582 0.959581395,30.8917612 1.9025814,30.8917612 L4.52672093,30.8917612 L4.52672093,28.8569552 L4.52672093,28.6216119 L3.03172093,28.6216119 C2.56102326,28.6216119 2.27913953,28.3368358 2.27913953,27.864 L2.27913953,3.26471642 C2.27913953,2.79134328 2.56048837,2.50710448 3.03172093,2.50710448 L42.9682791,2.50710448 C43.4384419,2.50710448 43.7213953,2.79080597 43.7213953,3.26471642 L43.7213953,27.8645373 C43.7213953,28.3373731 43.4395116,28.6221493 42.9682791,28.6221493 L23.6573721,28.6221493 L23.6573721,28.8574925 L23.6573721,30.8922985 L44.4755814,30.8922985 C45.4180465,30.8922985 45.9807442,30.3243582 45.9807442,29.3786866 L45.9807442,1.75056716 C45.9812791,0.804895522 45.4180465,0.23641791 44.4755814,0.23641791 L44.4755814,0.23641791 Z" id="Shape" sketch:type="MSShapeGroup"></path>
                <path d="M14.0931163,8.96238806 C16.4974186,8.96238806 18.446,10.9208955 18.446,13.3361194 C18.446,15.7524179 16.4968837,17.7098507 14.0931163,17.7098507 C11.6872093,17.7098507 9.73862791,15.7524179 9.73862791,13.3361194 C9.73862791,10.9203582 11.6872093,8.96238806 14.0931163,8.96238806 L14.0931163,8.96238806 Z" id="Shape" sketch:type="MSShapeGroup"></path>
                <path d="M18.501093,18.9198806 L9.68246512,18.9198806 C7.80234884,18.9198806 6.27846512,20.448 6.27846512,22.3307463 L6.27846512,24.893194 L6.27846512,28.664597 L6.27846512,34.7362388 C6.27846512,35.326209 6.7817907,35.8081791 7.39744186,35.8081791 L20.787186,35.8081791 C21.4023023,35.8081791 21.9061628,35.326209 21.9061628,34.7362388 L21.9061628,28.664597 L21.9061628,24.893194 L21.9061628,22.3307463 C21.9061628,20.448 20.3817442,18.9198806 18.501093,18.9198806 L18.501093,18.9198806 Z" id="Shape" sketch:type="MSShapeGroup"></path>
                <path d="M25.6658605,7.97802985 C25.6658605,7.51808955 26.0996512,7.14089552 26.6302558,7.14089552 L39.1363721,7.14089552 C39.665907,7.14089552 40.1007674,7.51808955 40.1007674,7.97802985 C40.1007674,8.43850746 39.6664419,8.81570149 39.1363721,8.81570149 L26.6302558,8.81570149 C26.0996512,8.81516418 25.6658605,8.43850746 25.6658605,7.97802985 L25.6658605,7.97802985 Z" id="Shape" sketch:type="MSShapeGroup"></path>
                <path d="M25.6658605,16.5492537 C25.6658605,16.0882388 26.0996512,15.7110448 26.6302558,15.7110448 L39.1363721,15.7110448 C39.665907,15.7110448 40.1007674,16.0877015 40.1007674,16.5492537 C40.1007674,17.009194 39.6664419,17.3863881 39.1363721,17.3863881 L26.6302558,17.3863881 C26.0996512,17.3858507 25.6658605,17.009194 25.6658605,16.5492537 L25.6658605,16.5492537 Z" id="Shape" sketch:type="MSShapeGroup"></path>
                <path d="M25.6658605,12.2631045 C25.6658605,11.8026269 26.0996512,11.4259701 26.6302558,11.4259701 L39.1363721,11.4259701 C39.665907,11.4259701 40.1007674,11.8026269 40.1007674,12.2631045 C40.1007674,12.7241194 39.6664419,13.1007761 39.1363721,13.1007761 L26.6302558,13.1007761 C26.0996512,13.1007761 25.6658605,12.7241194 25.6658605,12.2631045 L25.6658605,12.2631045 Z" id="Shape" sketch:type="MSShapeGroup"></path>
                <path d="M25.6647907,20.8332537 C25.6647907,20.3738507 26.0991163,19.9961194 26.6302558,19.9961194 L34.3422093,19.9961194 C34.872814,19.9961194 35.3066047,20.3733134 35.3066047,20.8332537 C35.3066047,21.2937313 34.872814,21.6709254 34.3422093,21.6709254 L26.6302558,21.6709254 C26.0991163,21.6709254 25.6647907,21.2942687 25.6647907,20.8332537 L25.6647907,20.8332537 Z" id="Shape" sketch:type="MSShapeGroup"></path>
            </g>
        </g>
    </g>
</svg>