<?xml version="1.0" encoding="UTF-8" standalone="no"?>
<svg width="50px" height="44px" viewBox="0 0 50 44" version="1.1" xmlns="http://www.w3.org/2000/svg" xmlns:xlink="http://www.w3.org/1999/xlink" xmlns:sketch="http://www.bohemiancoding.com/sketch/ns">
    <!-- Generator: Sketch 3.2.2 (9983) - http://www.bohemiancoding.com/sketch -->
    <title>Shape + Shape</title>
    <desc>Created with Sketch.</desc>
    <defs></defs>
    <g id="Page-1" stroke="none" stroke-width="1" fill="none" fill-rule="evenodd" sketch:type="MSPage">
        <g id="Wat-heb-ik-geleerd?" sketch:type="MSArtboardGroup" transform="translate(-158.000000, -656.000000)" fill="#FFFFFF">
            <g id="Shape-+-Shape" sketch:type="MSLayerGroup" transform="translate(157.000000, 657.000000)">
                <path d="M35.8442211,22.978393 C35.777917,22.4843206 35.3162837,22.0579783 34.8190031,22.0305298 L32.6188483,21.9103982 C32.1215677,21.8833062 31.5854314,21.4740746 31.4278701,21.0013906 L30.6151104,19.0343695 C30.3908885,18.589134 30.4800069,17.9218155 30.8122403,17.551083 L32.2816243,15.9113047 C32.6142141,15.5398592 32.6245519,14.9238729 32.3051516,14.5417332 L29.1635501,11.4001318 C28.7810539,11.080375 28.1643547,11.0910692 27.7929092,11.4233025 L26.1538438,12.8926866 C25.7834678,13.2256329 25.1147234,13.3140383 24.6705573,13.0891035 L22.7024668,12.2767002 C22.2304958,12.1191389 21.8212642,11.5833592 21.7938157,11.0860786 L21.6736841,8.88663669 C21.6462356,8.3889996 21.2202497,7.92736634 20.7258209,7.86070579 C20.7258209,7.86070579 19.5665689,7.70385742 18.4985741,7.70385742 C17.4323617,7.70385742 16.2731097,7.86070579 16.2731097,7.86070579 C15.7790373,7.92772282 15.3526949,8.38935608 15.3256029,8.88663669 L15.2051149,11.0860786 C15.1780229,11.5837156 14.7687912,12.1191389 14.2957508,12.2767002 L12.3290862,13.0891035 C11.8838507,13.3140383 11.2161758,13.2252764 10.8457997,12.8926866 L9.20566487,11.4233025 C8.83421942,11.0910692 8.21858959,11.080375 7.83609346,11.4001318 L4.69449197,14.5417332 C4.37473519,14.9242294 4.3854294,15.5402157 4.71801923,15.9113047 L6.18740324,17.551083 C6.51999307,17.922172 6.60875499,18.5894905 6.38382017,19.0343695 L5.57141693,21.0013906 C5.41385562,21.4740746 4.87771938,21.8833062 4.38079524,21.9103982 L2.18135338,22.0305298 C1.68371629,22.0579783 1.22208303,22.4839642 1.155066,22.978393 C1.155066,22.978393 0.998574106,24.1380015 0.998574106,25.2038574 C0.998574106,26.2697134 1.15542247,27.4282524 1.15542247,27.4282524 C1.2224395,27.9233942 1.68407276,28.3486672 2.18170985,28.3761156 L4.38079524,28.4969602 C4.87843233,28.5236957 5.41385562,28.9336403 5.57177341,29.4056113 L6.38382017,31.3722759 C6.60875499,31.8171549 6.5196366,32.4851864 6.18740324,32.8562753 L4.71801923,34.4953408 C4.3854294,34.8667862 4.37473519,35.483129 4.69449197,35.8659816 L7.83644993,39.0075831 C8.21894606,39.3269834 8.83493237,39.3162892 9.20602135,38.9840558 L10.8457997,37.5146718 C11.2168887,37.1824385 11.8842072,37.0933201 12.3290862,37.3175419 L14.2957508,38.1303016 C14.7687912,38.2875065 15.1780229,38.8239992 15.2047584,39.3219928 L15.3252465,41.5207217 C15.3523385,42.0180023 15.7786808,42.4803485 16.2727532,42.5473655 C16.2727532,42.5473655 17.4320052,42.7038574 18.4985741,42.7038574 C19.5665689,42.7038574 20.7265339,42.5473655 20.7265339,42.5473655 C21.2202497,42.4803485 21.6462356,42.0180023 21.6736841,41.5207217 L21.7938157,39.3219928 C21.8212642,38.8243557 22.2304958,38.287863 22.7031797,38.1303016 L24.6698444,37.3175419 C25.1147234,37.0933201 25.7827548,37.1824385 26.1538438,37.5146718 L27.7929092,38.9840558 C28.1643547,39.3166457 28.7806975,39.3276963 29.1628371,39.0079396 L32.3051516,35.8659816 C32.6245519,35.4834855 32.6138577,34.8667862 32.2816243,34.4953408 L30.8122403,32.8562753 C30.4800069,32.4851864 30.3908885,31.8171549 30.6151104,31.3722759 L31.4278701,29.4056113 C31.585075,28.9336403 32.1215677,28.5236957 32.6188483,28.4969602 L34.8190031,28.3761156 C35.3162837,28.3486672 35.7786299,27.9230377 35.8442211,27.4282524 C35.8442211,27.4282524 36.0014259,26.2697134 36.0014259,25.2038574 C36.0014259,24.1380015 35.8442211,22.978393 35.8442211,22.978393 L35.8442211,22.978393 Z M18.4989306,29.6476568 C16.0442536,29.6476568 14.0544182,27.656752 14.0544182,25.2035009 C14.0544182,22.7491805 16.0442536,20.7593451 18.4989306,20.7593451 C20.9550334,20.7593451 22.9459382,22.7491805 22.9459382,25.2035009 C22.9455818,27.656752 20.9546769,29.6476568 18.4989306,29.6476568 L18.4989306,29.6476568 Z" id="Shape" sketch:type="MSShapeGroup"></path>
                <path d="M49.5637855,9.3019535 C49.5234074,9.00107115 49.2422799,8.7414353 48.9394438,8.72471962 L47.5995839,8.65156136 C47.2967478,8.63506276 46.9702492,8.38584708 46.8742968,8.09798995 L46.3793388,6.90010483 C46.2427912,6.62896338 46.2970629,6.22257684 46.4993878,5.99680654 L47.3942198,4.99820713 C47.5967618,4.77200265 47.6030573,4.39687662 47.4085475,4.16415954 L45.4953613,2.25097332 C45.2624271,2.05624644 44.8868669,2.06275904 44.6606624,2.26508396 L43.6624972,3.15991587 C43.436944,3.36267497 43.0296891,3.4165125 42.7591989,3.27953071 L41.5606625,2.78478983 C41.2732395,2.68883745 41.0240239,2.36255595 41.0073082,2.05971982 L40.9341499,0.720294095 C40.9174342,0.417240884 40.6580155,0.136113441 40.356916,0.0955182043 C40.356916,0.0955182043 39.6509497,0 39.0005575,0 C38.3512508,0 37.6452845,0.0955182043 37.6452845,0.0955182043 C37.3444021,0.136330528 37.0847663,0.41745797 37.0682677,0.720294095 L36.9948923,2.05971982 C36.9783937,2.36277304 36.7291781,2.68883745 36.4411038,2.78478983 L35.2434358,3.27953071 C34.9722944,3.4165125 34.5656907,3.36245788 34.3401375,3.15991587 L33.341321,2.26508396 C33.1151166,2.06275904 32.7402076,2.05624644 32.5072734,2.25097332 L30.5940872,4.16415954 C30.3993603,4.3970937 30.4058729,4.77221974 30.6084149,4.99820713 L31.5032469,5.99680654 C31.7057889,6.22279393 31.7598435,6.62918047 31.6228617,6.90010483 L31.1281208,8.09798995 C31.0321684,8.38584708 30.7056698,8.63506276 30.4030508,8.65156136 L29.0636251,8.72471962 C28.7605719,8.7414353 28.4794444,9.00085406 28.4386321,9.3019535 C28.4386321,9.3019535 28.343331,10.0081369 28.343331,10.6572266 C28.343331,11.3063162 28.4388492,12.0118484 28.4388492,12.0118484 C28.4796615,12.313382 28.760789,12.5723666 29.0638422,12.5890822 L30.4030508,12.6626747 C30.706104,12.6789562 31.0321684,12.928606 31.1283379,13.216029 L31.6228617,14.413697 C31.7598435,14.6846214 31.7055718,15.0914421 31.5032469,15.3174295 L30.6084149,16.3155947 C30.4058729,16.5417992 30.3993603,16.9171423 30.5940872,17.1502936 L32.5074905,19.0634798 C32.7404247,19.2579896 33.1155507,19.251477 33.3415381,19.0491521 L34.3401375,18.1543202 C34.5661249,17.9519952 34.9725115,17.8977235 35.2434358,18.0342712 L36.4411038,18.5292291 C36.7291781,18.6249644 36.9783937,18.9516801 36.9946753,19.2549504 L37.0680506,20.5939419 C37.0845492,20.8967781 37.344185,21.1783397 37.6450674,21.219152 C37.6450674,21.219152 38.3510338,21.3144531 39.0005575,21.3144531 C39.6509497,21.3144531 40.3573502,21.219152 40.3573502,21.219152 C40.6580155,21.1783397 40.9174342,20.8967781 40.9341499,20.5939419 L41.0073082,19.2549504 C41.0240239,18.9518972 41.2732395,18.6251815 41.5610967,18.5292291 L42.7587647,18.0342712 C43.0296891,17.8977235 43.4365098,17.9519952 43.6624972,18.1543202 L44.6606624,19.0491521 C44.8868669,19.2516941 45.26221,19.2584238 45.4949271,19.0636969 L47.4085475,17.1502936 C47.6030573,16.9173594 47.5965447,16.5417992 47.3942198,16.3155947 L46.4993878,15.3174295 C46.2970629,15.0914421 46.2427912,14.6846214 46.3793388,14.413697 L46.8742968,13.216029 C46.9700321,12.928606 47.2967478,12.6789562 47.5995839,12.6626747 L48.9394438,12.5890822 C49.2422799,12.5723666 49.5238415,12.3131649 49.5637855,12.0118484 C49.5637855,12.0118484 49.6595208,11.3063162 49.6595208,10.6572266 C49.6595208,10.0081369 49.5637855,9.3019535 49.5637855,9.3019535 L49.5637855,9.3019535 Z M39.0007746,13.363431 C37.5059147,13.363431 36.2941361,12.151001 36.2941361,10.6570095 C36.2941361,9.16236666 37.5059147,7.95058799 39.0007746,7.95058799 C40.4965029,7.95058799 41.7089328,9.16236666 41.7089328,10.6570095 C41.7087157,12.151001 40.4962858,13.363431 39.0007746,13.363431 L39.0007746,13.363431 Z" id="Shape" stroke="#25C5A1" sketch:type="MSShapeGroup"></path>
            </g>
        </g>
    </g>
</svg>