<?xml version="1.0" encoding="UTF-8" standalone="no"?>
<svg width="53px" height="48px" viewBox="0 0 53 48" version="1.1" xmlns="http://www.w3.org/2000/svg" xmlns:xlink="http://www.w3.org/1999/xlink" xmlns:sketch="http://www.bohemiancoding.com/sketch/ns">
    <!-- Generator: Sketch 3.2.2 (9983) - http://www.bohemiancoding.com/sketch -->
    <title>Layer_1</title>
    <desc>Created with Sketch.</desc>
    <defs></defs>
    <g id="Page-1" stroke="none" stroke-width="1" fill="none" fill-rule="evenodd" sketch:type="MSPage">
        <g id="Wat-heb-ik-geleerd?" sketch:type="MSArtboardGroup" transform="translate(-148.000000, -474.000000)" fill="#FFFFFF">
            <g id="Layer_1" sketch:type="MSLayerGroup" transform="translate(148.000000, 474.000000)">
                <rect id="Rectangle-path" sketch:type="MSShapeGroup" x="42.0851485" y="45.8812174" width="7.00229703" height="1.65078261"></rect>
                <path d="M23.6301287,41.2111304 L44.2172178,38.5972174 L43.2165149,37.9643478 C40.4830792,36.2368696 37.3665743,35.3238261 34.2012673,35.3238261 L18.5788614,36.4633043 C17.0035545,35.0692174 15.314901,33.7111304 13.6309703,33.1533913 C13.5475347,33.1257391 13.4184455,33.0850435 13.2578713,33.038087 C11.0649307,32.3775652 10.9563069,32.064 10.9563069,32.0076522 C10.9652277,31.9476522 11.0827723,31.7264348 11.1625347,31.5787826 C11.4343564,31.0732174 11.8074554,30.3834783 11.8074554,29.4824348 C11.8074554,27.0015652 9.11809901,24.6563478 6.27656436,24.6563478 C3.83279208,24.6563478 1.99038614,26.2763478 1.99038614,28.4196522 C1.99038614,30.2191304 3.18787129,31.7692174 5.27586139,32.676 C5.9989703,32.9926957 6.77927723,33.165913 7.53492079,33.3344348 C7.83245545,33.3996522 8.08328713,33.4565217 8.32992079,33.518087 C10.5585446,34.010087 11.8683267,34.4833043 13.7411683,35.9942609 C14.5387921,36.6453913 15.111297,37.2751304 15.4833465,37.9142609 C14.3021287,38.9671304 12.2592673,40.056 10.4079406,40.056 C9.59667327,40.056 8.71981188,39.8561739 7.87233663,39.6615652 C6.97133663,39.4554783 6.04147525,39.2436522 5.1189604,39.2436522 C2.41071287,39.2436522 0.524752475,40.8250435 0.524752475,43.0893913 C0.524752475,45.5953043 3.11860396,47.8758261 5.96748515,47.8758261 C8.69882178,47.8758261 10.604198,46.2433043 10.604198,43.905913 C10.604198,43.3617391 10.5506733,43.118087 10.4079406,42.6146087 C10.3659604,42.434087 10.343396,42.2947826 10.343396,42.1946087 C10.343396,42.0782609 10.343396,42.0073043 10.8067525,42.0073043 L12.0929208,42.0073043 L18.2068119,41.5742609 L22.363901,45.8806957 L17.4317525,45.8806957 L17.4317525,47.5314783 L30.2645743,47.508 L30.2645743,45.7502609 L27.9131584,45.7502609 L23.6301287,41.2111304 L23.6301287,41.2111304 Z M7.78627723,31.1749565 C6.38781188,31.1749565 4.16233663,30.0276522 4.16233663,28.6669565 C4.16233663,27.3584348 4.93214851,26.6086957 6.27656436,26.6086957 C7.65194059,26.6086957 9.49539604,27.9088696 9.49539604,29.2387826 C9.49592079,30.2008696 8.90714851,31.1749565 7.78627723,31.1749565 L7.78627723,31.1749565 Z M5.96748515,45.8843478 C4.44675248,45.8843478 2.74025743,44.7062609 2.74025743,43.1311304 C2.74025743,41.9452174 3.92882178,41.2346087 5.07645545,41.2346087 C6.7000396,41.2346087 8.34671287,42.1241739 8.34671287,43.8229565 C8.34618812,45.1132174 7.13558416,45.8843478 5.96748515,45.8843478 L5.96748515,45.8843478 Z" id="Shape" sketch:type="MSShapeGroup"></path>
                <rect id="Rectangle-path" sketch:type="MSShapeGroup" x="32.7571485" y="45.8812174" width="7.00229703" height="1.65078261"></rect>
                <path d="M18.5699406,1.73165217 L17.6558218,4.99773913 L19.3392277,5.46313043 L20.3619703,1.80521739 L22.3707228,2.36034783 L20.6647525,8.46104348 L11.5167426,5.93165217 L13.1702376,0.0203478261 L15.1784653,0.576 L14.2087228,4.04452174 L15.6748812,4.44991304 L16.5879505,1.18434783 L18.5699406,1.73165217 Z" id="Shape" sketch:type="MSShapeGroup"></path>
                <path d="M45.0153663,31.0554783 L50.4245149,28.2521739 L51.3895347,30.0907826 L48.240495,31.7222609 L49.0480891,33.2629565 L52.0082178,31.7274783 L52.9590693,33.5410435 L49.9984158,35.076 L51.6660792,38.2549565 L49.4033465,39.4267826 L45.0153663,31.0554783 Z" id="Shape" sketch:type="MSShapeGroup"></path>
                <path d="M38.3457624,24.7497391 L36.6870198,21.8191304 L27.0583366,24.0558261 L28.3502772,26.3394783 L30.528,25.7306087 L31.7296832,27.8546087 L30.1113465,29.4516522 L31.4589109,31.8313043 L38.3457624,24.7497391 L38.3457624,24.7497391 Z M32.3268515,25.1107826 L34.0134059,24.6328696 C34.5491782,24.4946087 35.2927525,24.2389565 35.8526634,24.0866087 L35.8668317,24.1111304 C35.4444059,24.5076522 34.8598317,25.0450435 34.4615446,25.4264348 L33.1900693,26.6358261 L32.3268515,25.1107826 L32.3268515,25.1107826 Z" id="Shape" sketch:type="MSShapeGroup"></path>
            </g>
        </g>
    </g>
</svg>